<svg width="322" height="62" viewBox="0 0 322 62" fill="none"
xmlns="http://www.w3.org/2000/svg">
<path d="M165.411 0c-17.074 0-30.987 13.912-30.987 30.986 0 17.074 13.913 30.986 30.987 30.986 17.074 0 30.986-13.912 30.986-30.986C196.397 13.912 182.485 0 165.411 0zm18.7 20.597v1.174s0 .091-.09.091c0 0 0 .09-.091.09 0 0 0 .09-.09.09l-15.448 26.741c-.632.994-1.717 1.626-2.801 1.626-.542 0-1.084-.18-1.626-.452-1.535-.903-2.078-2.89-1.174-4.426l12.647-21.953h-19.874l2.891 4.97c.903 1.535.451 3.522-1.084 4.426-.543.27-1.085.451-1.627.451a3.326 3.326 0 0 1-2.8-1.535l-5.691-9.667c-.904-1.535-.452-3.523 1.084-4.426.09-.09.18-.09.361-.18.452-.182.903-.362 1.355-.362h30.806c.271 0 .451 0 .722.09H182.304s.09 0 .09.09c0 0 .091 0 .091.09l.09.091s.09 0 .09.09h.091l.09.09s.09 0 .09.091l.091.09c.18.181.271.271.361.452l.09.09.091.09c.271.362.361.814.452 1.266v.27c.09.362.09.362.09.452 0-.09 0-.09 0 0z"
     fill="url(#a)"></path>
<path d="M6.233 23.578v7.589H18.43c1.717 0 3.433 1.716 3.433 3.342 0 1.536-1.716 2.891-3.433 2.891H6.233v10.028c0 1.626-1.174 2.981-2.89 2.981C1.265 50.409 0 49.144 0 47.428V20.326c0-1.716 1.265-2.981 3.343-2.981h16.712c2.078 0 3.343 1.265 3.343 2.981 0 1.536-1.265 3.252-3.343 3.252H6.233zM31.619 50.319c-1.626 0-2.981-1.265-2.981-2.982V20.236c0-1.717 1.264-2.981 2.98-2.981h17.165c4.427 0 4.246 6.233 0 6.233H35.052v7.227h12.015c4.246 0 4.246 6.234 0 6.234H35.052v7.136h14.544c4.337 0 4.698 6.234 0 6.234H31.62zM57.998 20.236c0-1.536 1.355-2.891 2.98-2.891 1.537 0 2.801 1.355 2.801 2.89v23.85h13.01c4.697 0 4.787 6.234 0 6.234h-15.72c-1.626 0-2.98-1.175-2.98-2.891V20.236h-.091zM85.551 20.236c0-3.885 6.324-4.065 6.324 0v27.192c0 3.975-6.324 4.065-6.324 0V20.236zM99.554 50.319c-2.982 0-4.156-2.891-2.44-4.969l16.984-22.585h-14.093c-4.155 0-3.794-5.872 0-5.872h19.243c3.613 0 4.697 3.433 2.077 6.234l-16.261 21.139h15.448c3.794 0 4.246 6.053-.361 6.053H99.554zM207.87 20.417c0-1.536 1.265-3.253 3.252-3.253h11.022c6.233 0 11.744 4.156 11.744 12.106 0 7.498-5.601 11.744-11.744 11.744h-8.041v6.324c0 2.077-1.355 3.252-3.071 3.252-1.536 0-3.252-1.175-3.252-3.252V20.417h.09zm6.233 2.71V34.96h7.95c3.162 0 5.692-2.8 5.692-5.781 0-3.343-2.53-6.143-5.692-6.143h-7.95v.09zM238.947 20.417c0-1.536 1.355-2.891 2.981-2.891 1.535 0 2.8 1.355 2.8 2.89v23.85h12.919c4.697 0 4.788 6.233 0 6.233h-15.81c-1.626 0-2.981-1.174-2.981-2.89V20.417h.091zM266.681 50.5c-1.536-.904-2.44-2.53-1.536-4.608l13.641-26.74c1.265-2.53 4.698-2.62 5.872 0l13.461 26.83c1.987 3.704-3.795 6.686-5.511 2.982l-2.078-4.156h-17.616l-2.078 4.156c-.723 1.535-2.439 1.897-4.155 1.535zm20.507-12.106l-5.421-11.744-5.872 11.744h11.293zM293.963 22.133c-2.259-3.072 2.891-6.866 5.33-3.162l8.311 12.467 8.402-12.467c2.529-3.523 7.859 0 5.33 3.162l-10.751 15.538v9.847c0 4.156-6.324 4.066-6.324-.09v-9.666l-10.298-15.629z"
     fill="#F16723"></path>
<defs>
     <linearGradient id="a" x1="165.44" y1="61.902" x2="165.44" gradientUnits="userSpaceOnUse">
          <stop stop-color="#F58220"></stop>
          <stop offset="1" stop-color="#F05125"></stop>
     </linearGradient>
</defs>
</svg>